<?xml version="1.0" standalone="no"?>
<!DOCTYPE svg PUBLIC "-//W3C//DTD SVG 20010904//EN"
 "http://www.w3.org/TR/2001/REC-SVG-20010904/DTD/svg10.dtd">
<svg version="1.0" xmlns="http://www.w3.org/2000/svg"
 width="2133.000000pt" height="2133.000000pt" viewBox="0 0 2133.000000 2133.000000"
 preserveAspectRatio="xMidYMid meet">
<metadata>
Created by potrace 1.11, written by Peter Selinger 2001-2013
</metadata>
<g transform="translate(0.000000,2133.000000) scale(0.100000,-0.100000)"
fill="#000000" stroke="none">
<path d="M4600 21323 c-653 -38 -1280 -204 -1865 -492 -488 -241 -879 -519
-1268 -901 -411 -402 -714 -821 -968 -1335 -260 -527 -409 -1044 -476 -1655
-17 -158 -18 -436 -18 -6275 0 -6491 -2 -6161 46 -6495 148 -1032 636 -1998
1384 -2745 832 -830 1916 -1327 3085 -1415 103 -8 1909 -10 6240 -8 5764 3
6102 4 6230 21 644 84 1117 226 1645 492 966 486 1725 1252 2200 2220 255 518
390 977 472 1605 17 128 18 466 21 6230 2 4331 0 6137 -8 6240 -88 1169 -585
2253 -1415 3085 -738 739 -1702 1230 -2715 1380 -352 53 145 49 -6450 50
-3347 1 -6110 0 -6140 -2z m3425 -3793 c889 -53 1750 -380 2413 -917 50 -41
94 -79 97 -83 3 -5 -124 -173 -282 -374 l-287 -365 -45 42 c-110 101 -272 224
-423 318 -947 594 -2119 658 -3048 167 -613 -324 -1070 -837 -1325 -1488 -48
-122 -100 -312 -130 -475 -68 -371 -57 -815 29 -1175 162 -681 598 -1302 1191
-1695 361 -239 730 -382 1165 -450 138 -22 547 -31 703 -16 494 48 1011 227
1454 504 l83 52 0 1083 0 1082 445 0 445 0 0 -1339 0 -1339 -87 -64 c-200
-147 -321 -224 -519 -330 -421 -227 -934 -408 -1394 -492 -765 -139 -1523 -72
-2210 197 -987 386 -1756 1161 -2133 2152 -235 618 -296 1360 -166 2025 196
1005 813 1879 1709 2420 678 410 1497 608 2315 560z m7055 -1838 c402 -61 737
-176 1048 -360 445 -264 777 -621 1002 -1077 139 -281 210 -511 262 -840 26
-167 36 -595 19 -783 -91 -970 -604 -1752 -1427 -2172 -268 -138 -558 -228
-899 -280 -199 -31 -627 -39 -845 -16 -678 72 -1256 334 -1695 771 -405 403
-660 925 -749 1535 -53 361 -37 809 40 1158 85 382 242 728 468 1030 409 546
1019 905 1737 1022 209 34 291 39 604 35 239 -2 328 -7 435 -23z m3670 -9017
l0 -2785 -350 0 -350 0 0 388 0 387 -48 -75 c-306 -476 -816 -740 -1430 -740
-758 0 -1376 375 -1692 1025 -247 508 -290 1189 -109 1739 269 819 984 1306
1869 1273 611 -23 1075 -274 1369 -737 l41 -65 0 1181 c0 649 3 1184 7 1187 3
4 161 7 350 7 l343 0 0 -2785z m-13454 2490 c339 -45 720 -168 1009 -327 189
-105 415 -270 532 -390 l53 -53 -212 -257 -212 -257 -85 78 c-230 208 -439
341 -702 445 -243 96 -459 136 -737 136 -276 0 -504 -40 -723 -126 -705 -277
-1186 -889 -1279 -1624 -16 -128 -13 -417 5 -550 52 -370 210 -721 457 -1015
312 -372 766 -622 1247 -689 225 -32 544 -18 761 33 330 77 697 266 962 495
48 42 89 76 91 76 2 0 101 -105 220 -234 l216 -235 -87 -82 c-352 -330 -879
-599 -1370 -699 -214 -43 -332 -52 -602 -47 -335 7 -537 39 -819 133 -405 135
-745 346 -1051 653 -432 434 -682 952 -761 1576 -19 147 -16 513 5 665 66 487
260 940 563 1315 93 115 292 313 408 405 187 149 463 307 693 399 268 107 555
169 897 195 97 7 404 -4 521 -19z m4378 -1300 c369 -43 652 -162 870 -366 221
-207 354 -493 385 -831 6 -67 12 -650 15 -1445 l6 -1333 -350 0 -350 0 0 272
0 272 -37 -45 c-216 -260 -530 -429 -933 -499 -162 -28 -475 -38 -628 -20
-337 39 -626 171 -831 379 -299 304 -406 779 -270 1201 108 333 415 597 828
710 261 72 379 80 1189 80 l682 0 0 73 c-1 137 -19 322 -40 395 -93 333 -363
536 -773 581 -431 48 -872 -67 -1309 -342 -58 -37 -110 -67 -115 -67 -9 1
-288 458 -288 473 0 32 521 309 720 382 180 66 448 123 655 138 135 10 457 6
574 -8z m4616 -324 l0 -338 -162 -6 c-174 -6 -308 -30 -438 -80 -406 -153
-675 -479 -783 -949 -21 -91 -21 -112 -24 -1185 l-4 -1093 -349 0 -350 0 0
1985 0 1985 350 0 350 0 0 -422 0 -423 44 81 c205 382 515 626 930 730 120 31
264 52 364 53 l72 1 0 -339z"/>
<path d="M14445 14870 c-243 -17 -460 -73 -663 -170 -384 -185 -649 -452 -838
-845 -131 -272 -194 -575 -194 -934 0 -489 130 -909 388 -1257 259 -350 657
-587 1112 -663 196 -32 485 -33 686 -1 410 65 800 282 1051 583 228 274 368
596 430 989 25 161 25 558 0 713 -105 640 -436 1120 -957 1389 -227 117 -445
176 -720 196 -80 5 -154 9 -165 8 -11 0 -69 -4 -130 -8z"/>
<path d="M16585 7274 c-321 -33 -589 -153 -796 -356 -262 -258 -400 -586 -416
-988 -29 -729 387 -1309 1036 -1446 159 -33 441 -33 602 0 494 103 873 481
994 990 65 275 58 588 -20 861 -35 123 -140 332 -219 436 -195 257 -476 429
-793 484 -89 16 -315 27 -388 19z"/>
<path d="M8935 5689 c-455 -23 -696 -161 -761 -436 -22 -94 -14 -274 16 -360
81 -232 304 -391 615 -438 295 -44 627 6 880 133 120 60 192 110 283 196 91
87 150 168 202 279 65 139 80 221 80 445 l0 192 -582 -2 c-321 0 -650 -4 -733
-9z"/>
</g>
</svg>
